<?xml version="1.0" encoding="UTF-8"?>
<svg id="Layer_2" data-name="Layer 2" xmlns="http://www.w3.org/2000/svg" xmlns:xlink="http://www.w3.org/1999/xlink" viewBox="0 0 1440 1440">
  <defs>
    <style>
      .cls-1 {
        fill: url(#linear-gradient-2);
      }

      .cls-2 {
        fill: url(#linear-gradient-3);
      }

      .cls-3 {
        fill: #033b66;
      }

      .cls-4 {
        fill: url(#linear-gradient);
      }
    </style>
    <linearGradient id="linear-gradient" x1="-23.39" y1="689.85" x2="1382.05" y2="728.77" gradientUnits="userSpaceOnUse">
      <stop offset="0" stop-color="#2db0e2"/>
      <stop offset=".27" stop-color="#2cb7d8"/>
      <stop offset=".57" stop-color="#2cc5c9"/>
      <stop offset=".99" stop-color="#27dfb7"/>
    </linearGradient>
    <linearGradient id="linear-gradient-2" x1="88.18" y1="715.6" x2="1493.62" y2="754.52" xlink:href="#linear-gradient"/>
    <linearGradient id="linear-gradient-3" x1="33.64" y1="703.18" x2="1439.08" y2="742.1" xlink:href="#linear-gradient"/>
  </defs>
  <g id="Layer_1-2" data-name="Layer 1">
    <g>
      <rect class="cls-3" width="1440" height="1440"/>
      <g>
        <path class="cls-4" d="M939.04,845.95l258.79-1.23c31.74-.15,53.42-26.19,53.36-54.79l-.27-142.09c-.04-22.9-19.29-50.47-44.62-50.59l-266.85-1.25-.2-82.38,283.98.93c59.14.19,102.98,49.82,107.3,107.72,4.86,65.28,4.65,129.07.28,193.98-4.1,60.93-49.9,109.12-111.78,109.3l-278.7.83c-1.78-26.81-2.07-50.67-1.3-80.43Z"/>
        <path class="cls-1" d="M105.86,853.54v72.84h226c84.75,0,169.5,0,169.5-121.4,0-72.84-56.5-86.33-56.5-86.33,0,0,56.5-10.79,56.5-83.63,0-121.4-84.75-121.4-169.5-121.4h56.5H105.86v72.84h226c56.5,0,56.5,24.28,56.5,48.56,0,13.57,0,48.56-56.5,48.56l-197.75,2.48v70.36h197.75c56.5,0,56.5,24.28,56.5,48.56s0,48.56-56.5,48.56"/>
        <path class="cls-2" d="M522.25,926.38l158.2-412.76h79.1l158.2,412.76h-79.1l-118.65-315.64-118.65,315.64h-79.1Z"/>
      </g>
    </g>
  </g>
</svg>