<?xml version="1.0" encoding="UTF-8"?>
<svg id="Layer_2" data-name="Layer 2" xmlns="http://www.w3.org/2000/svg" xmlns:xlink="http://www.w3.org/1999/xlink" viewBox="0 0 1440 1440">
  <defs>
    <style>
      .cls-1 {
        fill: url(#linear-gradient-2);
      }

      .cls-2 {
        fill: url(#linear-gradient-3);
      }

      .cls-3 {
        fill: #033b66;
      }

      .cls-4 {
        fill: url(#linear-gradient);
      }
    </style>
    <linearGradient id="linear-gradient" x1="-.85" y1="715.47" x2="1574.03" y2="726.41" gradientUnits="userSpaceOnUse">
      <stop offset="0" stop-color="#2db0e2"/>
      <stop offset=".27" stop-color="#2cb7d8"/>
      <stop offset=".57" stop-color="#2cc5c9"/>
      <stop offset=".99" stop-color="#27dfb7"/>
    </linearGradient>
    <linearGradient id="linear-gradient-2" x1="-.87" y1="718.29" x2="1574.01" y2="729.22" xlink:href="#linear-gradient"/>
    <linearGradient id="linear-gradient-3" x1="-.83" y1="712.46" x2="1574.05" y2="723.4" xlink:href="#linear-gradient"/>
  </defs>
  <g id="Layer_1-2" data-name="Layer 1">
    <g>
      <rect class="cls-3" width="1440" height="1440"/>
      <g>
        <path class="cls-4" d="M527.03,954.32l165.41-468.65h82.7l165.41,468.65h-82.7l-124.05-358.38-124.05,358.38h-82.7Z"/>
        <path class="cls-1" d="M108,871.62v82.7h220.54c82.7,0,165.41,0,165.41-137.84,0-82.7-55.14-98.02-55.14-98.02,0,0,55.14-12.25,55.14-94.95,0-137.84-82.7-137.84-165.41-137.84h55.14H108v82.7h220.54c55.14,0,55.14,27.57,55.14,55.14,0,15.41,0,55.14-55.14,55.14l-192.97,2.81v79.89h192.97c55.14,0,55.14,27.57,55.14,55.14s0,55.14-55.14,55.14"/>
        <path class="cls-2" d="M1276.86,954.32h-82.7c137.84,0,137.84-137.84,137.84-192.97,0-27.57,0-48.99,0-82.7,0-137.84-55.14-192.98-137.84-192.97h-220.54v82.7h220.54v.49c4.55-.29-87.35-.49-82.7-.49,98.96,0,110.27,66.35,110.27,150.09s-11.31,153.15-110.27,153.15c-4.64,0,87.26-.2,82.7-.49v.49h-220.54v82.7h137.84"/>
      </g>
    </g>
  </g>
</svg>