<?xml version="1.0" encoding="UTF-8"?>
<svg xmlns="http://www.w3.org/2000/svg" viewBox="15.45 144.65 814.90 266.02">
<path fill-rule="nonzero" fill="rgb(100%, 100%, 100%)" fill-opacity="1" d="M 682.019531 272.199219 C 682.019531 263.726562 675.152344 256.863281 666.683594 256.863281 C 658.210938 256.863281 651.34375 263.726562 651.34375 272.199219 C 651.34375 280.667969 658.210938 287.535156 666.683594 287.535156 C 675.152344 287.535156 682.019531 280.667969 682.019531 272.199219 "/>
<path fill-rule="nonzero" fill="rgb(9.844971%, 16.404724%, 28.604126%)" fill-opacity="1" d="M 638.058594 391.71875 L 635.339844 372.074219 C 629.875 373.902344 624.824219 375.242188 619.175781 374.453125 C 613.917969 373.71875 609.792969 369.582031 609.78125 363.835938 L 609.683594 319.527344 L 636.042969 319.476562 L 636.046875 299.285156 L 609.691406 299.265625 L 609.574219 269.683594 L 584.40625 274.015625 L 584.378906 299.203125 L 567.378906 299.328125 L 567.378906 319.4375 L 584.367188 319.574219 L 584.394531 366.246094 C 584.402344 378.773438 589.242188 389.8125 601.894531 393.707031 C 613.789062 397.367188 626.691406 396.542969 638.058594 391.71875 "/>
<path fill-rule="nonzero" fill="rgb(9.844971%, 16.404724%, 28.604126%)" fill-opacity="1" d="M 516.734375 375.121094 C 505.6875 374.953125 496.820312 368.316406 493.445312 358.148438 C 491.050781 350.945312 490.945312 343.339844 493.214844 336.066406 C 496.78125 324.632812 507.355469 317.566406 519.257812 318.519531 C 528.488281 318.726562 536.671875 323.539062 540.695312 332.207031 L 560.976562 321.664062 C 557.097656 312.824219 550.570312 306.488281 542.09375 302.363281 C 513.941406 289.65625 477.234375 299.863281 468.628906 332 C 461.5625 358.394531 473.378906 386.328125 500.957031 393.945312 C 512.0625 397.011719 523.542969 396.726562 534.601562 393.792969 C 546.59375 390.195312 556.535156 382.433594 561.695312 370.890625 L 541.167969 360.816406 C 536.859375 370.335938 527.578125 375.992188 516.734375 375.121094 "/>
<path fill-rule="nonzero" fill="rgb(9.844971%, 16.404724%, 28.604126%)" fill-opacity="1" d="M 654.222656 299.246094 L 654.21875 393.824219 L 679.296875 393.824219 L 679.300781 299.246094 Z M 654.222656 299.246094 "/>
<path fill-rule="nonzero" fill="rgb(9.844971%, 16.404724%, 28.604126%)" fill-opacity="1" d="M 410.234375 325.296875 L 408.835938 321.78125 C 404.679688 311.347656 389.917969 311.324219 385.734375 321.746094 L 384.320312 325.265625 C 381.035156 333.445312 387.0625 342.351562 395.875 342.34375 L 398.691406 342.339844 C 407.476562 342.332031 413.484375 333.460938 410.234375 325.296875 M 416.898438 363.972656 L 377.910156 363.960938 C 372.773438 363.960938 368.164062 367.113281 366.308594 371.902344 L 360.890625 385.875 C 359.027344 390.667969 354.414062 393.824219 349.269531 393.816406 C 340.390625 393.804688 334.382812 384.753906 337.820312 376.5625 L 366.097656 309.160156 L 381.703125 270.898438 C 383.609375 266.222656 388.15625 263.164062 393.207031 263.15625 L 401.894531 263.148438 C 406.933594 263.140625 411.476562 266.175781 413.402344 270.832031 L 426.800781 303.214844 L 457.230469 376.621094 C 460.621094 384.796875 454.628906 393.792969 445.78125 393.824219 L 445.570312 393.824219 C 440.425781 393.84375 435.800781 390.691406 433.9375 385.898438 L 428.488281 371.902344 C 426.628906 367.121094 422.027344 363.976562 416.898438 363.972656 "/>
<path fill-rule="nonzero" fill="rgb(9.844971%, 16.404724%, 28.604126%)" fill-opacity="1" d="M 769.207031 358.480469 C 771.769531 351.226562 771.675781 343.316406 769.546875 336.003906 C 766.367188 325.09375 756.917969 318.785156 745.785156 318.390625 C 733.863281 317.964844 723.40625 324.757812 720.019531 336.4375 C 715.945312 350.507812 720.035156 368.671875 735.480469 373.753906 C 749.183594 378.265625 764.023438 373.15625 769.207031 358.480469 M 761.859375 393.832031 C 755.597656 395.664062 749.746094 396.121094 743.429688 396.074219 C 721.601562 395.910156 702.320312 384.117188 696.101562 362.703125 C 688.910156 337.949219 698.523438 311.121094 723.164062 301.242188 C 750.957031 290.101562 786.21875 301.253906 793.941406 333.070312 C 800.167969 358.730469 788.945312 385.914062 761.859375 393.832031 "/>
<path fill-rule="nonzero" fill="rgb(9.844971%, 16.404724%, 28.604126%)" fill-opacity="1" d="M 516.734375 375.121094 C 524.664062 375.757812 531.753906 372.90625 536.679688 367.601562 C 540.082031 363.941406 545.476562 362.929688 549.964844 365.132812 C 556.9375 368.554688 558.566406 377.925781 552.96875 383.308594 C 547.90625 388.171875 541.605469 391.691406 534.601562 393.792969 C 523.542969 396.726562 512.0625 397.011719 500.957031 393.945312 C 473.378906 386.328125 461.5625 358.394531 468.628906 332 C 477.234375 299.863281 513.941406 289.65625 542.09375 302.363281 C 545.933594 304.234375 549.375 306.554688 552.351562 309.359375 C 557.972656 314.65625 556.546875 323.96875 549.691406 327.53125 L 549.539062 327.609375 C 545.128906 329.902344 539.660156 329.1875 536.191406 325.625 C 531.808594 321.121094 525.796875 318.664062 519.257812 318.519531 C 507.355469 317.566406 496.78125 324.632812 493.214844 336.066406 C 490.945312 343.339844 491.050781 350.945312 493.445312 358.148438 C 496.820312 368.316406 505.6875 374.953125 516.734375 375.121094 "/>
<path fill-rule="nonzero" fill="rgb(9.844971%, 16.404724%, 28.604126%)" fill-opacity="1" d="M 637.09375 384.746094 C 637.691406 389.074219 634.925781 393.121094 630.695312 394.230469 C 621.300781 396.691406 611.285156 396.597656 601.894531 393.707031 C 589.242188 389.8125 584.402344 378.773438 584.394531 366.246094 L 584.375 328.066406 C 584.371094 323.363281 580.578125 319.542969 575.875 319.507812 C 571.171875 319.46875 567.378906 315.644531 567.378906 310.941406 L 567.378906 307.832031 C 567.378906 303.125 571.175781 299.300781 575.882812 299.265625 L 575.886719 299.265625 C 580.589844 299.230469 584.382812 295.414062 584.386719 290.710938 L 584.398438 281.222656 C 584.402344 277.058594 587.402344 273.5 591.511719 272.792969 L 599.597656 271.398438 C 604.816406 270.5 609.59375 274.507812 609.613281 279.804688 L 609.660156 290.742188 C 609.679688 295.457031 613.503906 299.269531 618.21875 299.273438 L 627.484375 299.28125 C 632.214844 299.285156 636.046875 303.117188 636.042969 307.847656 L 636.042969 310.929688 C 636.042969 315.652344 632.21875 319.484375 627.496094 319.492188 L 618.253906 319.511719 C 613.523438 319.519531 609.695312 323.363281 609.703125 328.09375 L 609.78125 363.839844 C 609.792969 369.582031 613.917969 373.71875 619.175781 374.453125 C 621.828125 374.824219 624.351562 374.726562 626.847656 374.328125 C 631.578125 373.570312 636.003906 376.863281 636.660156 381.609375 Z M 637.09375 384.746094 "/>
<path fill-rule="nonzero" fill="rgb(9.844971%, 16.404724%, 28.604126%)" fill-opacity="1" d="M 666.761719 299.246094 C 673.6875 299.246094 679.300781 304.859375 679.300781 311.785156 L 679.296875 381.285156 C 679.296875 388.210938 673.683594 393.824219 666.757812 393.824219 C 659.832031 393.824219 654.21875 388.210938 654.21875 381.285156 L 654.222656 311.785156 C 654.222656 304.859375 659.835938 299.246094 666.761719 299.246094 "/>
<path fill-rule="nonzero" fill="rgb(26.901245%, 73.165894%, 24.01886%)" fill-opacity="1" d="M 682.019531 272.199219 C 682.019531 280.667969 675.152344 287.535156 666.683594 287.535156 C 658.210938 287.535156 651.34375 280.667969 651.34375 272.199219 C 651.34375 263.726562 658.210938 256.863281 666.683594 256.863281 C 675.152344 256.863281 682.019531 263.726562 682.019531 272.199219 "/>
<path fill-rule="nonzero" fill="rgb(26.901245%, 73.165894%, 24.01886%)" fill-opacity="1" d="M 195.449219 172 C 195.449219 162.335938 187.617188 154.503906 177.953125 154.503906 C 168.292969 154.503906 160.457031 162.335938 160.457031 172 C 160.457031 181.660156 168.292969 189.496094 177.953125 189.496094 C 187.617188 189.496094 195.449219 181.660156 195.449219 172 "/>
<path fill-rule="nonzero" fill="rgb(26.901245%, 73.165894%, 24.01886%)" fill-opacity="1" d="M 210.496094 207.832031 C 205.488281 200.027344 197.527344 192.601562 188.398438 194.1875 L 177.976562 195.996094 C 174.3125 196.632812 170.675781 195.0625 166.964844 193.976562 C 156.648438 194.617188 147.855469 200.871094 142.929688 209.917969 C 140.085938 215.382812 137.976562 220.769531 136.148438 227.480469 C 143.789062 224.730469 150.453125 221.929688 158.226562 220.355469 C 178.414062 216.261719 198.886719 218.945312 217.992188 227.890625 C 216.5625 220.394531 214.179688 214.144531 210.496094 207.832031 "/>
<path fill-rule="nonzero" fill="rgb(9.844971%, 16.404724%, 28.604126%)" fill-opacity="1" d="M 135.269531 364.085938 L 116.71875 400.667969 L 84.640625 400.644531 L 112.515625 347.25 L 165.792969 243.550781 C 173.765625 243.125 181.097656 243.179688 188.816406 243.421875 L 229.027344 321.789062 C 219.695312 324.957031 211.761719 328.640625 203.507812 333.265625 L 177.171875 280.929688 Z M 135.269531 364.085938 "/>
<path fill-rule="nonzero" fill="rgb(26.901245%, 73.165894%, 24.01886%)" fill-opacity="1" d="M 143.382812 364.523438 L 151.574219 347.757812 L 172.96875 359.023438 C 192.398438 342.835938 209.691406 332.367188 234.027344 324.15625 C 245.898438 320.152344 257.65625 317.816406 270.09375 316.679688 C 272.429688 316.46875 274.652344 316.515625 276.664062 317.054688 C 260.277344 321.550781 245.066406 327.519531 230.941406 336.566406 C 209.335938 350.167969 192.351562 366.035156 175.820312 385.921875 C 165.328125 378.265625 155.226562 371.683594 143.382812 364.523438 "/>
<path fill-rule="nonzero" fill="rgb(9.844971%, 16.404724%, 28.604126%)" fill-opacity="1" d="M 213.070312 353.273438 C 220.605469 347.132812 228.199219 342.023438 236.601562 336.882812 L 251.554688 366.789062 C 261.308594 355.636719 265.863281 336.921875 266.453125 322.140625 L 285.871094 316.660156 C 286.546875 316.46875 287.613281 315.464844 287.601562 314.84375 C 287.527344 310.496094 270.566406 311.515625 266.746094 312.25 C 267.796875 288.027344 261.386719 268.035156 245.855469 249.417969 C 239.882812 242.257812 233.027344 236.386719 224.976562 231.566406 C 223.878906 225.933594 221.941406 221.308594 219.3125 215.535156 C 237.652344 219.542969 257.804688 234.820312 268.453125 250.414062 C 265.726562 263.464844 274.074219 275.820312 287.257812 278.25 C 294.167969 279.523438 299.0625 284.246094 298.996094 291.78125 C 299.195312 299.148438 297.570312 306.546875 294.535156 313.378906 C 293.894531 314.816406 291.929688 315.550781 290.246094 315.863281 C 290.335938 323.402344 289.398438 330.363281 287.054688 337.628906 C 281.15625 355.015625 271.984375 371.023438 259.230469 384.320312 C 252.722656 391.109375 245.121094 396.160156 236.863281 400.820312 Z M 213.070312 353.273438 "/>
<path fill-rule="nonzero" fill="rgb(9.844971%, 16.404724%, 28.604126%)" fill-opacity="1" d="M 310.667969 254.667969 C 310.667969 265.015625 302.28125 273.402344 291.933594 273.402344 C 281.585938 273.402344 273.199219 265.015625 273.199219 254.667969 C 273.199219 244.324219 281.585938 235.9375 291.933594 235.9375 C 302.28125 235.9375 310.667969 244.324219 310.667969 254.667969 "/>
<path fill-rule="nonzero" fill="rgb(29.537964%, 51.96991%, 80.267334%)" fill-opacity="1" d="M 210.496094 207.832031 C 214.179688 214.144531 216.5625 220.394531 217.992188 227.890625 C 198.886719 218.945312 178.414062 216.261719 158.226562 220.355469 C 150.453125 221.929688 143.789062 224.730469 136.148438 227.480469 C 137.976562 220.769531 140.085938 215.382812 142.929688 209.917969 C 147.855469 200.871094 156.648438 194.617188 166.964844 193.976562 C 170.675781 195.0625 174.3125 196.632812 177.976562 195.996094 L 188.398438 194.1875 C 197.527344 192.601562 205.488281 200.027344 210.496094 207.832031 "/>
<path fill-rule="nonzero" fill="rgb(29.537964%, 51.96991%, 80.267334%)" fill-opacity="1" d="M 195.449219 172 C 195.449219 181.660156 187.617188 189.496094 177.953125 189.496094 C 168.292969 189.496094 160.457031 181.660156 160.457031 172 C 160.457031 162.335938 168.292969 154.503906 177.953125 154.503906 C 187.617188 154.503906 195.449219 162.335938 195.449219 172 "/>
<path fill-rule="nonzero" fill="rgb(29.537964%, 51.96991%, 80.267334%)" fill-opacity="1" d="M 98.171875 354.621094 C 93.09375 344.15625 90.214844 330.390625 89.839844 319.675781 C 89.753906 317.203125 89.546875 309.785156 89.546875 309.785156 C 89.546875 309.785156 94.910156 265.574219 110.4375 246.953125 C 116.410156 239.792969 123.265625 233.921875 131.316406 229.101562 C 132.414062 223.46875 134.351562 218.84375 136.980469 213.070312 C 118.644531 217.082031 98.488281 232.355469 87.84375 247.949219 C 90.566406 261 82.222656 273.355469 69.035156 275.785156 C 62.125 277.058594 57.230469 281.78125 57.296875 289.316406 C 57.097656 296.683594 58.722656 304.082031 61.761719 310.914062 C 62.398438 312.351562 64.363281 313.085938 66.046875 313.398438 C 65.960938 320.9375 66.898438 327.898438 69.238281 335.164062 C 73.804688 348.625 80.34375 361.246094 88.976562 372.433594 "/>
<path fill-rule="nonzero" fill="rgb(29.537964%, 51.96991%, 80.267334%)" fill-opacity="1" d="M 45.628906 252.203125 C 45.628906 262.550781 54.015625 270.9375 64.359375 270.9375 C 74.707031 270.9375 83.09375 262.550781 83.09375 252.203125 C 83.09375 241.859375 74.707031 233.472656 64.359375 233.472656 C 54.015625 233.472656 45.628906 241.859375 45.628906 252.203125 "/>
</svg>
