<?xml version="1.0" encoding="UTF-8"?>
<svg xmlns="http://www.w3.org/2000/svg" viewBox="28.87 230.14 824.87 134.28">
<path fill-rule="nonzero" fill="rgb(17.23175%, 34.692383%, 63.615417%)" fill-opacity="1" d="M 280.171875 281.921875 C 280.046875 278.652344 279.039062 275.378906 276.902344 272.988281 C 274.511719 270.21875 270.609375 268.082031 267.085938 268.082031 L 244.910156 268.082031 C 243.8125 268.082031 242.921875 268.972656 242.921875 270.070312 L 242.921875 293.777344 C 242.921875 294.875 243.8125 295.765625 244.910156 295.765625 L 267.085938 295.765625 C 270.484375 295.765625 274.761719 293.753906 277.40625 290.230469 C 279.167969 287.839844 280.300781 284.945312 280.171875 281.921875 M 291.5 299.667969 C 286.214844 306.96875 277.152344 311.75 267.210938 311.75 L 244.910156 311.75 C 243.8125 311.75 242.921875 312.640625 242.921875 313.738281 L 242.921875 340.59375 C 242.921875 341.691406 242.03125 342.582031 240.933594 342.582031 L 227.796875 342.582031 C 226.699219 342.582031 225.808594 341.691406 225.808594 340.59375 L 225.808594 253.960938 C 225.808594 252.863281 226.699219 251.972656 227.796875 251.972656 L 267.210938 251.972656 C 270.359375 251.972656 273.503906 252.476562 276.398438 253.355469 C 282.4375 255.242188 287.851562 259.019531 291.5 264.179688 C 295.273438 269.214844 297.414062 275.632812 297.539062 281.921875 C 297.667969 288.214844 295.273438 294.632812 291.5 299.667969 "/>
<path fill-rule="nonzero" fill="rgb(17.23175%, 34.692383%, 63.615417%)" fill-opacity="1" d="M 336.046875 313.257812 C 328.75 314.644531 321.074219 316.027344 320.820312 321.4375 C 320.570312 325.464844 324.21875 328.988281 329.757812 328.738281 C 336.929688 328.488281 345.613281 324.960938 347.753906 316.78125 C 348.066406 315.628906 348.273438 314.515625 348.40625 313.566406 C 348.59375 312.222656 347.390625 311.105469 346.0625 311.355469 Z M 307.949219 288.210938 C 306.8125 287.667969 306.433594 286.199219 307.214844 285.214844 C 307.21875 285.207031 307.222656 285.203125 307.230469 285.195312 C 313.394531 276.511719 322.707031 272.863281 333.910156 272.863281 C 346.367188 272.863281 356.4375 277.015625 361.972656 286.328125 C 364.617188 290.730469 365.621094 295.765625 365.621094 299.917969 L 365.621094 340.59375 C 365.621094 341.691406 364.730469 342.582031 363.632812 342.582031 L 352.636719 342.582031 C 351.535156 342.582031 350.648438 341.691406 350.648438 340.59375 L 350.648438 337.539062 C 350.648438 335.738281 348.457031 334.878906 347.207031 336.183594 C 345.609375 337.855469 343.761719 339.289062 342.214844 340.191406 C 337.433594 343.085938 331.519531 344.34375 326.359375 344.34375 C 319.734375 344.34375 312.863281 341.117188 309.195312 336.882812 C 309.144531 336.820312 309.09375 336.757812 309.046875 336.691406 C 305.570312 331.835938 303.832031 328.445312 303.832031 322.570312 C 303.832031 315.273438 308.363281 308.097656 314.78125 304.324219 C 322.332031 300.296875 327.617188 300.171875 337.308594 298.660156 L 345.703125 297.503906 C 347.144531 297.304688 347.882812 295.679688 347.105469 294.449219 C 346.175781 292.980469 344.824219 291.742188 343.222656 290.859375 C 340.453125 289.222656 337.054688 288.59375 333.53125 288.71875 C 329.125 288.71875 325.476562 289.726562 322.835938 292.871094 C 322.667969 293.039062 322.503906 293.214844 322.34375 293.40625 C 321.753906 294.09375 320.785156 294.316406 319.964844 293.925781 Z M 307.949219 288.210938 "/>
<path fill-rule="nonzero" fill="rgb(17.23175%, 34.692383%, 63.615417%)" fill-opacity="1" d="M 407.628906 287.839844 C 406.53125 287.839844 405.640625 288.726562 405.640625 289.828125 L 405.640625 312.503906 C 405.640625 317.789062 405.765625 321.691406 407.277344 324.082031 C 408.785156 326.472656 411.554688 327.984375 414.199219 328.234375 C 416.832031 328.4375 420.035156 328.394531 423.085938 328.109375 C 424.257812 328 425.273438 328.910156 425.273438 330.085938 L 425.273438 341.011719 C 425.273438 341.949219 424.625 342.765625 423.710938 342.960938 C 418.1875 344.125 409.964844 344.21875 405.386719 342.957031 C 399.222656 341.195312 394.441406 338.175781 391.796875 333.140625 C 388.902344 327.730469 388.523438 321.1875 388.523438 313.761719 L 388.523438 289.828125 C 388.523438 288.726562 387.636719 287.839844 386.535156 287.839844 L 376.417969 287.839844 C 375.320312 287.839844 374.429688 286.949219 374.429688 285.851562 L 374.429688 276.613281 C 374.429688 275.515625 375.320312 274.625 376.417969 274.625 L 386.535156 274.625 C 387.636719 274.625 388.523438 273.734375 388.523438 272.636719 L 388.523438 257.734375 C 388.523438 256.636719 389.414062 255.746094 390.511719 255.746094 L 403.652344 255.746094 C 404.75 255.746094 405.640625 256.636719 405.640625 257.734375 L 405.640625 272.636719 C 405.640625 273.734375 406.53125 274.625 407.628906 274.625 L 423.285156 274.625 C 424.382812 274.625 425.273438 275.515625 425.273438 276.613281 L 425.273438 285.851562 C 425.273438 286.949219 424.382812 287.839844 423.285156 287.839844 Z M 407.628906 287.839844 "/>
<path fill-rule="nonzero" fill="rgb(17.23175%, 34.692383%, 63.615417%)" fill-opacity="1" d="M 504.050781 308.601562 L 504.050781 340.59375 C 504.050781 341.691406 503.160156 342.582031 502.0625 342.582031 L 488.671875 342.582031 C 487.574219 342.582031 486.683594 341.691406 486.683594 340.59375 L 486.683594 308.601562 C 486.683594 302.4375 485.675781 296.648438 482.152344 293.125 C 479.761719 290.605469 476.113281 289.347656 471.457031 289.347656 C 468.308594 289.472656 465.667969 290.355469 463.402344 291.992188 C 460.886719 293.878906 459.125 296.898438 458.367188 300.675781 C 457.738281 303.695312 457.613281 308.351562 457.613281 313.007812 L 457.613281 340.59375 C 457.613281 341.691406 456.722656 342.582031 455.625 342.582031 L 442.359375 342.582031 C 441.261719 342.582031 440.371094 341.691406 440.371094 340.59375 L 440.371094 253.960938 C 440.371094 252.863281 441.261719 251.972656 442.359375 251.972656 L 453.484375 251.972656 C 454.582031 251.972656 455.472656 252.863281 455.472656 253.960938 L 455.472656 275.507812 C 455.472656 277.0625 457.167969 277.992188 458.507812 277.195312 C 463.300781 274.335938 468.789062 272.941406 473.847656 272.738281 C 481.398438 272.484375 489.453125 275.378906 494.863281 280.289062 C 502.917969 287.710938 504.050781 296.773438 504.050781 308.601562 "/>
<path fill-rule="nonzero" fill="rgb(17.23175%, 34.692383%, 63.615417%)" fill-opacity="1" d="M 566.089844 308.601562 C 566.089844 303.441406 565.085938 298.15625 562.191406 294.382812 C 559.421875 290.605469 554.765625 288.71875 549.730469 288.71875 C 544.699219 288.71875 540.042969 290.605469 537.273438 294.382812 C 534.378906 298.15625 533.496094 303.441406 533.496094 308.601562 C 533.496094 313.761719 534.378906 318.921875 537.273438 322.699219 C 540.042969 326.472656 544.699219 328.488281 549.730469 328.488281 C 554.765625 328.488281 559.421875 326.472656 562.191406 322.699219 C 565.085938 318.921875 566.089844 313.761719 566.089844 308.601562 M 523.683594 333.144531 C 517.894531 326.09375 515.375 317.914062 515.375 308.601562 C 515.375 299.039062 518.269531 290.605469 523.683594 284.0625 C 529.972656 276.636719 539.789062 272.738281 549.730469 272.738281 C 559.800781 272.738281 569.488281 276.511719 575.78125 284.0625 C 581.824219 291.234375 584.214844 299.414062 584.214844 308.601562 C 584.214844 318.292969 581.570312 325.96875 575.78125 333.144531 C 569.363281 340.695312 559.925781 344.46875 549.730469 344.46875 C 539.664062 344.46875 529.972656 340.566406 523.683594 333.144531 "/>
<path fill-rule="nonzero" fill="rgb(21.833801%, 62.016296%, 50.010681%)" fill-opacity="1" d="M 634.550781 302.035156 L 634.550781 311.269531 C 634.550781 312.367188 633.660156 313.257812 632.5625 313.257812 L 598.785156 313.257812 C 597.6875 313.257812 596.796875 312.367188 596.796875 311.269531 L 596.796875 302.035156 C 596.796875 300.933594 597.6875 300.046875 598.785156 300.046875 L 632.5625 300.046875 C 633.660156 300.046875 634.550781 300.933594 634.550781 302.035156 "/>
<path fill-rule="nonzero" fill="rgb(21.833801%, 62.016296%, 50.010681%)" fill-opacity="1" d="M 669.285156 253.960938 L 669.285156 323.476562 C 669.285156 324.574219 670.171875 325.464844 671.273438 325.464844 L 706.308594 325.464844 C 707.40625 325.464844 708.296875 326.355469 708.296875 327.453125 L 708.296875 340.59375 C 708.296875 341.691406 707.40625 342.582031 706.308594 342.582031 L 654.15625 342.582031 C 653.058594 342.582031 652.167969 341.691406 652.167969 340.59375 L 652.167969 253.960938 C 652.167969 252.863281 653.058594 251.972656 654.15625 251.972656 L 667.296875 251.972656 C 668.394531 251.972656 669.285156 252.863281 669.285156 253.960938 "/>
<path fill-rule="nonzero" fill="rgb(21.833801%, 62.016296%, 50.010681%)" fill-opacity="1" d="M 736.109375 253.960938 L 736.109375 340.59375 C 736.109375 341.691406 735.21875 342.582031 734.121094 342.582031 L 720.980469 342.582031 C 719.882812 342.582031 718.992188 341.691406 718.992188 340.59375 L 718.992188 253.960938 C 718.992188 252.863281 719.882812 251.972656 720.980469 251.972656 L 734.121094 251.972656 C 735.21875 251.972656 736.109375 252.863281 736.109375 253.960938 "/>
<path fill-rule="nonzero" fill="rgb(21.833801%, 62.016296%, 50.010681%)" fill-opacity="1" d="M 806.496094 279.242188 C 805.601562 279.484375 804.652344 279.066406 804.222656 278.246094 C 802.246094 274.457031 800.332031 271.710938 796.511719 269.464844 C 793.617188 267.703125 789.96875 266.191406 785.816406 266.191406 C 781.539062 266.066406 777.511719 267.074219 774.867188 268.710938 C 771.722656 270.597656 770.210938 273.492188 770.210938 276.261719 C 770.210938 277.898438 770.839844 279.40625 771.972656 280.539062 C 773.609375 282.300781 777.761719 283.9375 782.292969 285.320312 L 798.023438 289.851562 C 806.078125 292.242188 810.734375 294.632812 814.761719 298.410156 C 820.171875 303.570312 823.191406 310.238281 823.191406 317.664062 C 823.191406 325.589844 818.660156 333.898438 811.488281 338.679688 C 804.566406 343.335938 796.261719 344.46875 786.695312 344.46875 C 774.617188 344.46875 764.296875 341.324219 756.871094 332.261719 C 752.945312 327.4375 750.617188 321.914062 749.179688 316.582031 C 748.890625 315.519531 749.519531 314.421875 750.585938 314.136719 L 764.019531 310.535156 C 765.105469 310.242188 766.210938 310.914062 766.464844 312.011719 C 767.300781 315.613281 768.675781 318.851562 770.589844 321.1875 C 774.238281 326.222656 781.285156 328.484375 787.328125 328.484375 C 792.109375 328.484375 798.148438 327.101562 801.421875 324.585938 C 804.316406 322.445312 805.070312 319.675781 805.070312 317.160156 C 805.070312 314.769531 804.1875 312.503906 802.300781 310.867188 C 800.289062 309.105469 797.769531 307.847656 794.246094 306.839844 L 777.382812 301.933594 C 770.589844 300.046875 764.421875 297.402344 760.019531 293.5 C 754.605469 288.972656 752.214844 282.175781 752.214844 275.882812 C 752.214844 265.941406 758.632812 257.382812 766.9375 253.609375 C 773.484375 250.585938 780.027344 250.085938 786.066406 250.085938 C 792.234375 250.210938 799.027344 251.21875 805.070312 254.488281 C 812.136719 258.3125 817.820312 264.695312 821.425781 272.855469 C 821.921875 273.972656 821.300781 275.273438 820.117188 275.589844 Z M 806.496094 279.242188 "/>
<path fill-rule="nonzero" fill="rgb(17.23175%, 34.692383%, 63.615417%)" fill-opacity="1" d="M 70.488281 353.355469 C 70.488281 353.355469 66.0625 354.675781 63.054688 359.445312 L 127.5 359.445312 C 123.964844 353.835938 120.066406 353.355469 120.066406 353.355469 "/>
<path fill-rule="nonzero" fill="rgb(17.23175%, 34.692383%, 63.615417%)" fill-opacity="1" d="M 84.105469 308.359375 L 92.535156 314.957031 L 95.714844 310.894531 L 98.359375 312.964844 L 100.757812 309.902344 L 87.890625 299.828125 L 85.441406 297.914062 L 83.042969 300.976562 L 85.492188 302.890625 L 85.6875 303.046875 L 82.507812 307.109375 Z M 84.105469 308.359375 "/>
<path fill-rule="nonzero" fill="rgb(17.23175%, 34.692383%, 63.615417%)" fill-opacity="1" d="M 128.894531 264.871094 L 120.355469 258.421875 L 117.246094 262.539062 L 114.5625 260.515625 L 112.222656 263.621094 L 125.261719 273.46875 L 125.261719 273.464844 L 127.742188 275.339844 L 130.085938 272.234375 L 127.605469 270.363281 L 127.40625 270.210938 L 130.515625 266.09375 Z M 128.894531 264.871094 "/>
<path fill-rule="nonzero" fill="rgb(17.23175%, 34.692383%, 63.615417%)" fill-opacity="1" d="M 118.570312 287.144531 L 127.132812 276.207031 L 124.488281 274.136719 L 125.925781 272.300781 L 115.898438 264.453125 L 114.460938 266.289062 L 111.820312 264.21875 L 86.75 296.242188 L 102.066406 308.230469 L 109.574219 298.636719 "/>
<path fill-rule="nonzero" fill="rgb(17.23175%, 34.692383%, 63.615417%)" fill-opacity="1" d="M 87.710938 328.367188 L 59.421875 328.636719 L 59.453125 332.171875 L 87.742188 331.902344 Z M 87.710938 328.367188 "/>
<path fill-rule="nonzero" fill="rgb(17.23175%, 34.692383%, 63.615417%)" fill-opacity="1" d="M 122.503906 307.375 C 120.722656 301.164062 117.242188 295.90625 112.71875 291.945312 C 112.410156 294.296875 111.222656 296.457031 109.417969 297.988281 C 111.972656 300.769531 113.945312 304.15625 115.058594 308.03125 C 118.878906 321.351562 112.34375 333.949219 100.847656 337.246094 C 93.402344 339.378906 87.035156 338.074219 81.738281 334.128906 L 64.347656 334.292969 C 71.964844 345.730469 86.355469 351.472656 100.269531 347.484375 C 117.488281 342.546875 127.441406 324.589844 122.503906 307.375 "/>
<path fill-rule="nonzero" fill="rgb(17.23175%, 34.692383%, 63.615417%)" fill-opacity="1" d="M 119.511719 235.109375 L 79.652344 235.109375 C 69.535156 235.109375 61.332031 242.511719 61.332031 251.644531 L 61.332031 283.996094 L 65.390625 283.996094 L 65.390625 255.785156 C 65.390625 246.816406 73.445312 239.542969 83.382812 239.542969 L 119.511719 239.542969 Z M 119.511719 235.109375 "/>
<path fill-rule="nonzero" fill="rgb(21.833801%, 62.016296%, 50.010681%)" fill-opacity="1" d="M 182.316406 255.785156 L 182.316406 263.261719 L 186.375 263.261719 L 186.375 251.644531 C 186.375 242.511719 178.171875 235.109375 168.054688 235.109375 L 127.316406 235.109375 L 127.316406 239.542969 L 164.320312 239.542969 C 174.261719 239.542969 182.316406 246.816406 182.316406 255.785156 "/>
<path fill-rule="nonzero" fill="rgb(21.833801%, 62.016296%, 50.010681%)" fill-opacity="1" d="M 182.316406 338.457031 L 182.316406 338.769531 C 182.316406 347.738281 174.261719 355.007812 164.320312 355.007812 L 138.699219 355.007812 L 138.699219 359.445312 L 168.054688 359.445312 C 178.171875 359.445312 186.375 352.042969 186.375 342.910156 L 186.375 338.457031 Z M 182.316406 338.457031 "/>
<path fill-rule="nonzero" fill="rgb(21.833801%, 62.016296%, 50.010681%)" fill-opacity="1" d="M 162.453125 272.089844 L 162.472656 272.089844 Z M 164.320312 271.789062 C 163.84375 271.789062 163.378906 272.039062 163.121094 272.480469 C 162.941406 272.796875 162.890625 273.167969 162.988281 273.527344 C 163.085938 273.886719 163.3125 274.183594 163.628906 274.367188 L 169.230469 277.601562 C 169.890625 277.980469 170.734375 277.753906 171.121094 277.09375 C 171.5 276.4375 171.273438 275.589844 170.613281 275.210938 L 165.011719 271.972656 C 164.792969 271.851562 164.554688 271.789062 164.320312 271.789062 M 169.917969 279.335938 C 169.417969 279.335938 168.914062 279.210938 168.457031 278.945312 L 162.851562 275.710938 C 162.175781 275.320312 161.691406 274.683594 161.488281 273.929688 C 161.285156 273.171875 161.390625 272.378906 161.777344 271.703125 C 162.589844 270.304688 164.386719 269.820312 165.785156 270.628906 L 171.386719 273.863281 C 172.785156 274.671875 173.269531 276.46875 172.460938 277.867188 C 171.917969 278.8125 170.929688 279.335938 169.917969 279.335938 M 184.8125 284.984375 C 184.050781 284.984375 183.429688 285.601562 183.429688 286.363281 C 183.429688 287.125 184.050781 287.742188 184.8125 287.742188 C 185.570312 287.742188 186.191406 287.125 186.191406 286.363281 C 186.191406 285.601562 185.570312 284.984375 184.8125 284.984375 M 184.8125 289.296875 C 183.195312 289.296875 181.878906 287.980469 181.878906 286.363281 C 181.878906 284.746094 183.195312 283.429688 184.8125 283.429688 C 186.429688 283.429688 187.746094 284.746094 187.746094 286.363281 C 187.746094 287.980469 186.429688 289.296875 184.8125 289.296875 M 155.699219 279.378906 C 155.21875 279.378906 154.753906 279.628906 154.5 280.070312 L 151.265625 285.671875 C 151.082031 285.992188 151.03125 286.363281 151.128906 286.722656 C 151.226562 287.078125 151.453125 287.378906 151.769531 287.5625 C 152.085938 287.742188 152.464844 287.796875 152.816406 287.695312 C 153.175781 287.601562 153.472656 287.375 153.65625 287.054688 L 156.890625 281.453125 C 157.074219 281.132812 157.121094 280.761719 157.027344 280.40625 C 156.933594 280.046875 156.707031 279.75 156.386719 279.566406 C 156.167969 279.441406 155.929688 279.378906 155.699219 279.378906 M 152.453125 289.296875 C 151.945312 289.296875 151.445312 289.164062 150.992188 288.902344 C 150.320312 288.515625 149.835938 287.882812 149.632812 287.121094 C 149.429688 286.363281 149.53125 285.574219 149.921875 284.898438 L 153.15625 279.292969 C 153.964844 277.890625 155.765625 277.414062 157.164062 278.21875 C 157.835938 278.609375 158.320312 279.242188 158.523438 280 C 158.726562 280.757812 158.625 281.546875 158.234375 282.226562 L 155 287.828125 C 154.609375 288.503906 153.972656 288.988281 153.21875 289.191406 C 152.964844 289.261719 152.707031 289.296875 152.453125 289.296875 M 139.195312 293.222656 C 138.816406 293.882812 139.042969 294.726562 139.703125 295.109375 L 145.304688 298.34375 C 145.621094 298.527344 146 298.578125 146.351562 298.480469 C 146.710938 298.382812 147.007812 298.15625 147.191406 297.839844 C 147.375 297.523438 147.421875 297.148438 147.328125 296.792969 C 147.230469 296.433594 147.003906 296.136719 146.683594 295.953125 L 141.082031 292.71875 C 140.765625 292.535156 140.398438 292.484375 140.039062 292.582031 C 139.675781 292.675781 139.378906 292.90625 139.195312 293.222656 M 145.984375 300.078125 C 145.476562 300.078125 144.976562 299.945312 144.527344 299.6875 L 138.925781 296.453125 C 137.523438 295.644531 137.042969 293.847656 137.851562 292.445312 C 138.242188 291.769531 138.875 291.285156 139.632812 291.082031 C 140.390625 290.882812 141.179688 290.984375 141.855469 291.375 L 147.460938 294.609375 C 148.132812 295 148.621094 295.632812 148.824219 296.390625 C 149.027344 297.148438 148.921875 297.9375 148.53125 298.613281 C 148.140625 299.289062 147.507812 299.773438 146.75 299.976562 C 146.5 300.042969 146.242188 300.078125 145.984375 300.078125 M 191.28125 291.449219 C 190.804688 291.449219 190.339844 291.699219 190.082031 292.140625 L 186.847656 297.742188 C 186.664062 298.0625 186.617188 298.429688 186.710938 298.789062 C 186.808594 299.148438 187.035156 299.445312 187.355469 299.628906 C 188.011719 300.007812 188.855469 299.78125 189.242188 299.125 L 192.476562 293.519531 C 192.855469 292.863281 192.625 292.015625 191.96875 291.636719 C 191.753906 291.507812 191.515625 291.449219 191.28125 291.449219 M 188.035156 301.363281 C 187.542969 301.363281 187.035156 301.238281 186.578125 300.972656 C 185.898438 300.582031 185.414062 299.949219 185.210938 299.191406 C 185.007812 298.429688 185.109375 297.644531 185.503906 296.964844 L 188.738281 291.363281 C 189.550781 289.964844 191.347656 289.480469 192.742188 290.289062 C 194.144531 291.097656 194.625 292.894531 193.816406 294.292969 L 190.582031 299.898438 C 190.039062 300.839844 189.054688 301.363281 188.035156 301.363281 M 162.128906 298.746094 C 160.179688 298.746094 158.59375 300.332031 158.59375 302.28125 C 158.59375 304.230469 160.179688 305.816406 162.128906 305.816406 C 164.082031 305.816406 165.667969 304.234375 165.667969 302.28125 C 165.667969 300.328125 164.082031 298.746094 162.128906 298.746094 M 162.128906 307.371094 C 159.324219 307.371094 157.042969 305.085938 157.042969 302.28125 C 157.042969 299.476562 159.324219 297.191406 162.128906 297.191406 C 164.9375 297.191406 167.21875 299.476562 167.21875 302.28125 C 167.21875 305.089844 164.9375 307.371094 162.128906 307.371094 M 162.128906 294.429688 C 157.804688 294.429688 154.28125 297.953125 154.28125 302.28125 C 154.28125 306.609375 157.804688 310.128906 162.128906 310.128906 C 165.292969 310.128906 168.132812 308.25 169.363281 305.335938 C 169.371094 305.316406 169.378906 305.296875 169.390625 305.28125 C 171.160156 301.019531 174.265625 298.675781 176.761719 296.792969 C 176.765625 296.789062 176.773438 296.785156 176.777344 296.785156 C 176.804688 296.761719 176.835938 296.738281 176.871094 296.71875 C 177.964844 296.085938 178.640625 294.914062 178.640625 293.65625 C 178.640625 291.703125 177.054688 290.117188 175.101562 290.117188 C 174.46875 290.117188 173.847656 290.289062 173.304688 290.605469 C 173.296875 290.613281 173.289062 290.617188 173.28125 290.621094 C 172.886719 290.839844 172.496094 291.066406 172.089844 291.296875 C 169.550781 292.765625 166.667969 294.429688 162.128906 294.429688 M 162.128906 311.683594 C 156.945312 311.683594 152.726562 307.464844 152.726562 302.28125 C 152.726562 297.097656 156.945312 292.878906 162.128906 292.878906 C 166.253906 292.878906 168.828125 291.390625 171.316406 289.953125 C 171.726562 289.71875 172.125 289.484375 172.527344 289.265625 C 173.304688 288.808594 174.195312 288.566406 175.101562 288.566406 C 177.910156 288.566406 180.191406 290.847656 180.191406 293.65625 C 180.191406 295.453125 179.234375 297.125 177.691406 298.039062 C 175.332031 299.816406 172.398438 302.035156 170.792969 305.949219 C 170.78125 305.972656 170.773438 305.996094 170.757812 306.019531 C 169.265625 309.460938 165.890625 311.683594 162.128906 311.683594 M 184.597656 306.292969 C 184.121094 306.292969 183.65625 306.539062 183.402344 306.980469 C 183.21875 307.300781 183.171875 307.671875 183.265625 308.027344 C 183.363281 308.386719 183.589844 308.6875 183.90625 308.867188 L 189.511719 312.105469 C 190.171875 312.484375 191.011719 312.257812 191.398438 311.601562 C 191.582031 311.28125 191.628906 310.910156 191.53125 310.554688 C 191.4375 310.195312 191.207031 309.894531 190.890625 309.710938 L 185.289062 306.476562 C 185.070312 306.355469 184.835938 306.292969 184.597656 306.292969 M 190.195312 313.839844 C 189.699219 313.839844 189.195312 313.714844 188.734375 313.449219 L 183.132812 310.210938 C 182.453125 309.824219 181.96875 309.1875 181.765625 308.429688 C 181.5625 307.671875 181.664062 306.882812 182.058594 306.207031 C 182.867188 304.8125 184.660156 304.328125 186.0625 305.132812 L 191.664062 308.367188 C 192.34375 308.757812 192.828125 309.394531 193.03125 310.148438 C 193.234375 310.910156 193.132812 311.699219 192.738281 312.375 C 192.199219 313.3125 191.210938 313.839844 190.195312 313.839844 M 144.125 313.316406 L 144.144531 313.316406 Z M 146 313.019531 C 145.878906 313.019531 145.753906 313.03125 145.636719 313.066406 C 145.277344 313.160156 144.980469 313.386719 144.796875 313.707031 C 144.617188 314.023438 144.566406 314.394531 144.664062 314.75 C 144.757812 315.109375 144.988281 315.40625 145.304688 315.589844 L 150.910156 318.824219 C 151.226562 319.011719 151.597656 319.058594 151.953125 318.960938 C 152.3125 318.863281 152.609375 318.636719 152.792969 318.320312 C 152.976562 318.003906 153.023438 317.632812 152.925781 317.273438 C 152.828125 316.914062 152.601562 316.617188 152.289062 316.433594 L 146.683594 313.199219 C 146.46875 313.078125 146.234375 313.019531 146 313.019531 M 151.585938 320.5625 C 151.078125 320.5625 150.578125 320.429688 150.128906 320.167969 L 144.523438 316.933594 C 143.851562 316.542969 143.363281 315.914062 143.160156 315.15625 C 142.957031 314.398438 143.0625 313.605469 143.453125 312.933594 C 143.84375 312.253906 144.476562 311.769531 145.230469 311.566406 C 145.992188 311.355469 146.78125 311.464844 147.457031 311.859375 L 153.0625 315.09375 C 153.734375 315.484375 154.222656 316.113281 154.421875 316.875 C 154.625 317.632812 154.523438 318.421875 154.132812 319.097656 C 153.742188 319.773438 153.109375 320.257812 152.351562 320.460938 C 152.097656 320.53125 151.839844 320.5625 151.585938 320.5625 M 176.1875 318.152344 C 176.066406 318.152344 175.945312 318.167969 175.824219 318.199219 C 175.464844 318.296875 175.167969 318.523438 174.984375 318.839844 L 171.75 324.445312 C 171.566406 324.761719 171.519531 325.132812 171.613281 325.488281 C 171.710938 325.847656 171.9375 326.148438 172.253906 326.332031 C 172.574219 326.511719 172.949219 326.558594 173.300781 326.464844 C 173.660156 326.367188 173.957031 326.140625 174.140625 325.824219 L 177.375 320.21875 C 177.558594 319.902344 177.605469 319.53125 177.507812 319.171875 C 177.414062 318.816406 177.1875 318.515625 176.871094 318.335938 C 176.660156 318.214844 176.425781 318.152344 176.1875 318.152344 M 172.933594 328.066406 C 172.429688 328.066406 171.925781 327.933594 171.480469 327.675781 C 170.800781 327.285156 170.316406 326.648438 170.113281 325.894531 C 169.910156 325.132812 170.011719 324.34375 170.40625 323.667969 L 173.640625 318.066406 C 174.03125 317.390625 174.664062 316.902344 175.421875 316.703125 C 176.179688 316.492188 176.972656 316.601562 177.644531 316.992188 C 178.320312 317.382812 178.804688 318.015625 179.011719 318.773438 C 179.210938 319.53125 179.109375 320.320312 178.714844 320.996094 L 175.480469 326.601562 C 175.09375 327.277344 174.460938 327.761719 173.703125 327.964844 C 173.449219 328.03125 173.191406 328.066406 172.933594 328.066406 M 166.476562 268.554688 C 149.066406 268.554688 134.90625 282.714844 134.90625 300.125 C 134.90625 317.53125 149.066406 331.695312 166.476562 331.695312 C 183.882812 331.695312 198.046875 317.535156 198.046875 300.125 C 198.046875 282.714844 183.882812 268.554688 166.476562 268.554688 M 166.476562 333.25 C 148.210938 333.25 133.351562 318.390625 133.351562 300.125 C 133.351562 281.859375 148.210938 267 166.476562 267 C 184.742188 267 199.601562 281.859375 199.601562 300.125 C 199.601562 318.390625 184.742188 333.25 166.476562 333.25 "/>
</svg>
