<?xml version="1.0" encoding="UTF-8"?>
<svg xmlns="http://www.w3.org/2000/svg" viewBox="17.75 207.08 806.29 180.40">
<path fill-rule="nonzero" fill="rgb(11.372375%, 11.372375%, 10.588074%)" fill-opacity="1" d="M 265.371094 329.523438 C 265.371094 330.359375 266.050781 331.039062 266.886719 331.039062 L 284.796875 331.039062 C 288.140625 331.039062 291.066406 330.371094 293.570312 329.03125 C 296.078125 327.699219 298.042969 325.835938 299.460938 323.453125 C 300.882812 321.074219 301.59375 318.296875 301.59375 315.121094 C 301.59375 311.863281 300.882812 309.042969 299.460938 306.660156 C 298.042969 304.277344 296.078125 302.421875 293.570312 301.082031 C 291.066406 299.746094 288.140625 299.078125 284.796875 299.078125 L 266.886719 299.078125 C 266.050781 299.078125 265.371094 299.753906 265.371094 300.589844 Z M 250.582031 377.78125 L 250.582031 287.429688 C 250.582031 286.59375 251.257812 285.917969 252.09375 285.917969 L 284.546875 285.917969 C 290.816406 285.917969 296.328125 287.066406 301.089844 289.363281 C 305.855469 291.664062 309.59375 295.003906 312.308594 299.390625 C 315.023438 303.777344 316.382812 309.023438 316.382812 315.121094 C 316.382812 321.636719 314.773438 327.175781 311.558594 331.730469 C 308.648438 335.847656 304.835938 338.957031 300.117188 341.058594 C 299.308594 341.417969 298.996094 342.410156 299.4375 343.179688 L 318.84375 377.027344 C 319.421875 378.035156 318.695312 379.292969 317.53125 379.292969 L 304.234375 379.292969 C 303.6875 379.292969 303.183594 379 302.914062 378.523438 L 283.152344 343.425781 C 282.394531 342.082031 283.902344 340.597656 285.234375 341.378906 C 286.570312 342.15625 286.015625 344.199219 284.472656 344.199219 L 269.539062 344.199219 C 267.238281 344.199219 265.371094 346.066406 265.371094 348.367188 L 265.371094 377.78125 C 265.371094 378.617188 264.691406 379.292969 263.855469 379.292969 L 252.09375 379.292969 C 251.257812 379.292969 250.582031 378.617188 250.582031 377.78125 "/>
<path fill-rule="nonzero" fill="rgb(11.372375%, 11.372375%, 10.588074%)" fill-opacity="1" d="M 359.125 380.796875 C 352.355469 380.796875 346.378906 379.230469 341.199219 376.097656 C 336.019531 372.964844 331.964844 368.703125 329.042969 363.3125 C 326.117188 357.921875 324.65625 351.886719 324.65625 345.203125 C 324.65625 338.351562 326.117188 332.292969 329.042969 327.027344 C 331.964844 321.765625 335.957031 317.605469 341.011719 314.558594 C 346.066406 311.507812 351.730469 309.980469 357.996094 309.980469 C 363.175781 309.980469 367.773438 310.859375 371.78125 312.613281 C 375.792969 314.367188 379.175781 316.769531 381.933594 319.820312 C 384.691406 322.871094 386.800781 326.359375 388.265625 330.285156 C 389.726562 334.214844 390.457031 338.390625 390.457031 342.820312 C 390.457031 343.90625 390.414062 345.035156 390.332031 346.203125 C 390.285156 346.871094 390.210938 347.507812 390.109375 348.117188 C 389.980469 348.894531 389.316406 349.464844 388.527344 349.464844 L 337.402344 349.464844 C 336.523438 349.464844 335.8125 348.75 335.8125 347.871094 L 335.8125 339.777344 C 335.8125 338.894531 336.523438 338.183594 337.402344 338.183594 L 377.023438 338.183594 C 378.542969 338.183594 379.199219 340.105469 377.996094 341.035156 C 376.925781 341.867188 375.398438 341.058594 375.4375 339.703125 C 375.519531 337.039062 375.09375 334.589844 374.164062 332.355469 C 372.828125 329.140625 370.738281 326.589844 367.898438 324.707031 C 365.054688 322.828125 361.753906 321.886719 357.996094 321.886719 C 354.316406 321.886719 351.019531 322.828125 348.09375 324.707031 C 345.167969 326.589844 342.910156 329.28125 341.324219 332.792969 C 339.746094 336.28125 339.117188 340.425781 339.4375 345.230469 C 339.441406 345.292969 339.441406 345.359375 339.4375 345.421875 C 339.035156 349.976562 339.6875 353.957031 341.386719 357.359375 C 343.097656 360.785156 345.523438 363.460938 348.660156 365.382812 C 351.792969 367.304688 355.320312 368.261719 359.25 368.261719 C 363.425781 368.261719 366.9375 367.34375 369.777344 365.503906 C 372.242188 363.914062 374.296875 361.910156 375.945312 359.496094 C 376.386719 358.851562 377.25 358.652344 377.949219 359 L 386.8125 363.433594 C 387.613281 363.832031 387.921875 364.808594 387.515625 365.605469 C 386.195312 368.191406 384.355469 370.539062 381.996094 372.652344 C 379.199219 375.15625 375.855469 377.144531 371.96875 378.605469 C 368.085938 380.066406 363.800781 380.796875 359.125 380.796875 "/>
<path fill-rule="nonzero" fill="rgb(11.372375%, 11.372375%, 10.588074%)" fill-opacity="1" d="M 429.3125 380.796875 C 422.292969 380.796875 416.191406 379.085938 411.011719 375.660156 C 407.769531 373.515625 405.132812 370.914062 403.101562 367.855469 C 401.132812 364.886719 402.261719 360.855469 405.484375 359.339844 L 406.25 358.980469 C 408.78125 357.785156 411.789062 358.566406 413.445312 360.824219 C 414.855469 362.742188 416.503906 364.382812 418.398438 365.742188 C 421.925781 368.273438 426.285156 369.5 430.621094 369.226562 C 433.371094 369.050781 435.648438 368.3125 437.460938 367.011719 C 439.546875 365.503906 440.59375 363.460938 440.59375 360.871094 C 440.59375 359.28125 440.132812 357.96875 439.214844 356.921875 C 438.292969 355.875 437.148438 355.019531 435.765625 354.351562 C 434.386719 353.683594 432.988281 353.140625 431.570312 352.722656 L 420.914062 349.714844 C 414.980469 348.042969 410.574219 345.535156 407.691406 342.195312 C 404.808594 338.851562 403.367188 334.921875 403.367188 330.410156 C 403.367188 326.320312 404.410156 322.726562 406.5 319.632812 C 408.589844 316.542969 411.472656 314.160156 415.148438 312.488281 C 418.824219 310.816406 423 309.980469 427.683594 309.980469 C 433.867188 309.980469 439.382812 311.507812 444.226562 314.558594 C 447.128906 316.382812 449.523438 318.640625 451.410156 321.320312 C 453.460938 324.242188 452.308594 328.328125 449.085938 329.867188 L 448.441406 330.171875 C 445.949219 331.363281 442.890625 330.730469 441.246094 328.507812 C 440.132812 327 438.785156 325.714844 437.207031 324.644531 C 434.367188 322.726562 431.148438 321.765625 427.558594 321.765625 C 424.164062 321.765625 421.523438 322.644531 419.640625 324.40625 C 418.082031 325.867188 417.296875 328.019531 417.417969 330.152344 C 417.496094 331.523438 417.910156 332.671875 418.65625 333.609375 C 419.492188 334.652344 420.578125 335.488281 421.917969 336.113281 C 423.253906 336.742188 424.632812 337.261719 426.054688 337.679688 L 437.082031 340.941406 C 442.679688 342.527344 446.984375 345.015625 449.992188 348.398438 C 453 351.78125 454.503906 355.816406 454.503906 360.492188 C 454.503906 364.503906 453.441406 368.035156 451.308594 371.082031 C 449.179688 374.136719 446.234375 376.515625 442.472656 378.226562 C 438.710938 379.941406 434.324219 380.796875 429.3125 380.796875 "/>
<path fill-rule="nonzero" fill="rgb(11.372375%, 11.372375%, 10.588074%)" fill-opacity="1" d="M 497.746094 380.046875 C 490.644531 380.046875 485.128906 378.039062 481.203125 374.027344 C 477.273438 370.019531 475.308594 364.378906 475.308594 357.109375 L 475.308594 326.273438 C 475.308594 325.238281 474.46875 324.394531 473.429688 324.394531 L 465.160156 324.394531 C 464.121094 324.394531 463.277344 323.554688 463.277344 322.515625 L 463.277344 313.367188 C 463.277344 312.328125 464.121094 311.484375 465.160156 311.484375 C 468.332031 311.484375 470.816406 310.566406 472.617188 308.730469 C 474.414062 306.890625 475.308594 304.382812 475.308594 301.207031 L 475.308594 297.824219 C 475.308594 296.785156 476.152344 295.941406 477.191406 295.941406 L 487.59375 295.941406 C 488.632812 295.941406 489.472656 296.785156 489.472656 297.824219 L 489.472656 309.605469 C 489.472656 310.644531 490.316406 311.484375 491.355469 311.484375 L 503.011719 311.484375 C 504.050781 311.484375 504.890625 312.328125 504.890625 313.367188 L 504.890625 322.515625 C 504.890625 323.554688 504.050781 324.394531 503.011719 324.394531 L 491.355469 324.394531 C 490.316406 324.394531 489.472656 325.238281 489.472656 326.273438 L 489.472656 356.480469 C 489.472656 358.820312 489.851562 360.804688 490.601562 362.433594 C 491.355469 364.0625 492.5625 365.316406 494.238281 366.195312 C 495.90625 367.074219 498.078125 367.511719 500.753906 367.511719 C 501.421875 367.511719 502.175781 367.46875 503.011719 367.386719 C 503.117188 367.375 503.222656 367.367188 503.328125 367.355469 C 504.433594 367.246094 505.390625 368.113281 505.390625 369.226562 L 505.390625 377.648438 C 505.390625 378.59375 504.699219 379.394531 503.761719 379.515625 C 503.046875 379.605469 502.296875 379.703125 501.507812 379.796875 C 500.085938 379.960938 498.832031 380.046875 497.746094 380.046875 "/>
<path fill-rule="nonzero" fill="rgb(11.372375%, 11.372375%, 10.588074%)" fill-opacity="1" d="M 550.640625 367.636719 C 554.566406 367.636719 558.074219 366.675781 561.167969 364.753906 C 564.257812 362.832031 566.703125 360.179688 568.5 356.792969 C 570.296875 353.410156 571.195312 349.585938 571.195312 345.328125 C 571.195312 341.066406 570.296875 337.285156 568.5 333.984375 C 566.703125 330.683594 564.257812 328.050781 561.167969 326.085938 C 558.074219 324.125 554.566406 323.140625 550.640625 323.140625 C 546.710938 323.140625 543.183594 324.125 540.050781 326.085938 C 536.914062 328.050781 534.449219 330.683594 532.652344 333.984375 C 530.855469 337.285156 529.957031 341.066406 529.957031 345.328125 C 529.957031 349.585938 530.855469 353.410156 532.652344 356.792969 C 534.449219 360.179688 536.914062 362.832031 540.050781 364.753906 C 543.183594 366.675781 546.710938 367.636719 550.640625 367.636719 M 550.640625 380.796875 C 544.039062 380.796875 538.0625 379.253906 532.714844 376.160156 C 527.367188 373.070312 523.105469 368.851562 519.933594 363.5 C 516.753906 358.15625 515.167969 352.09375 515.167969 345.328125 C 515.167969 338.476562 516.734375 332.398438 519.867188 327.089844 C 523.003906 321.785156 527.242188 317.605469 532.589844 314.554688 C 537.9375 311.507812 543.953125 309.980469 550.640625 309.980469 C 557.324219 309.980469 563.320312 311.507812 568.625 314.554688 C 573.933594 317.605469 578.152344 321.785156 581.285156 327.089844 C 584.417969 332.398438 585.984375 338.476562 585.984375 345.328125 C 585.984375 352.179688 584.398438 358.28125 581.222656 363.625 C 578.046875 368.972656 573.785156 373.171875 568.4375 376.222656 C 563.089844 379.273438 557.15625 380.796875 550.640625 380.796875 "/>
<path fill-rule="nonzero" fill="rgb(92.941284%, 41.567993%, 23.529053%)" fill-opacity="1" d="M 615.941406 323.644531 C 615.941406 327.726562 619.25 331.039062 623.335938 331.039062 L 635.492188 331.039062 C 638.835938 331.039062 641.761719 330.371094 644.265625 329.035156 C 646.773438 327.699219 648.714844 325.835938 650.09375 323.457031 C 651.476562 321.074219 652.164062 318.296875 652.164062 315.121094 C 652.164062 311.859375 651.476562 309.042969 650.09375 306.660156 C 648.714844 304.277344 646.773438 302.417969 644.265625 301.082031 C 641.761719 299.746094 638.835938 299.078125 635.492188 299.078125 L 623.335938 299.078125 C 619.25 299.078125 615.941406 302.386719 615.941406 306.472656 Z M 601.152344 371.898438 L 601.152344 293.3125 C 601.152344 289.226562 604.460938 285.917969 608.546875 285.917969 L 635.117188 285.917969 C 641.386719 285.917969 646.917969 287.066406 651.722656 289.363281 C 656.527344 291.664062 660.265625 295.003906 662.941406 299.390625 C 665.617188 303.777344 666.953125 309.023438 666.953125 315.121094 C 666.953125 321.136719 665.59375 326.320312 662.878906 330.664062 C 660.164062 335.007812 656.425781 338.351562 651.664062 340.6875 C 646.898438 343.027344 641.386719 344.199219 635.117188 344.199219 L 623.335938 344.199219 C 619.25 344.199219 615.941406 347.511719 615.941406 351.59375 L 615.941406 371.898438 C 615.941406 375.980469 612.628906 379.292969 608.546875 379.292969 C 604.460938 379.292969 601.152344 375.980469 601.152344 371.898438 "/>
<path fill-rule="nonzero" fill="rgb(92.941284%, 41.567993%, 23.529053%)" fill-opacity="1" d="M 680.738281 375.15625 L 680.738281 315.621094 C 680.738281 313.335938 682.59375 311.484375 684.875 311.484375 L 690.140625 311.484375 C 692.425781 311.484375 694.277344 313.335938 694.277344 315.621094 L 694.277344 325.273438 L 694.113281 325.015625 C 693.40625 323.882812 693.265625 322.464844 693.796875 321.238281 C 695.308594 317.773438 697.472656 315.210938 700.292969 313.554688 C 703.632812 311.589844 707.644531 310.609375 712.328125 310.609375 C 714.609375 310.609375 716.460938 312.460938 716.460938 314.742188 L 716.460938 319.382812 C 716.460938 321.667969 714.609375 323.519531 712.328125 323.519531 L 710.570312 323.519531 C 705.890625 323.519531 702.109375 324.980469 699.226562 327.90625 C 696.34375 330.828125 694.902344 334.921875 694.902344 340.1875 L 694.902344 375.15625 C 694.902344 377.441406 693.050781 379.292969 690.769531 379.292969 L 684.875 379.292969 C 682.59375 379.292969 680.738281 377.441406 680.738281 375.15625 "/>
<path fill-rule="nonzero" fill="rgb(92.941284%, 41.567993%, 23.529053%)" fill-opacity="1" d="M 758.828125 367.636719 C 762.753906 367.636719 766.261719 366.675781 769.355469 364.753906 C 772.445312 362.832031 774.890625 360.179688 776.6875 356.792969 C 778.484375 353.410156 779.382812 349.585938 779.382812 345.328125 C 779.382812 341.066406 778.484375 337.285156 776.6875 333.984375 C 774.890625 330.683594 772.445312 328.050781 769.355469 326.085938 C 766.261719 324.125 762.753906 323.140625 758.828125 323.140625 C 754.898438 323.140625 751.367188 324.125 748.234375 326.085938 C 745.101562 328.050781 742.636719 330.683594 740.839844 333.984375 C 739.042969 337.285156 738.144531 341.066406 738.144531 345.328125 C 738.144531 349.585938 739.042969 353.410156 740.839844 356.792969 C 742.636719 360.179688 745.101562 362.832031 748.234375 364.753906 C 751.367188 366.675781 754.898438 367.636719 758.828125 367.636719 M 758.828125 380.796875 C 752.226562 380.796875 746.25 379.253906 740.902344 376.160156 C 735.554688 373.070312 731.292969 368.851562 728.121094 363.5 C 724.941406 358.15625 723.355469 352.09375 723.355469 345.328125 C 723.355469 338.476562 724.921875 332.398438 728.054688 327.089844 C 731.191406 321.785156 735.429688 317.605469 740.777344 314.554688 C 746.125 311.507812 752.140625 309.980469 758.828125 309.980469 C 765.511719 309.980469 771.503906 311.507812 776.8125 314.554688 C 782.117188 317.605469 786.339844 321.785156 789.472656 327.089844 C 792.605469 332.398438 794.171875 338.476562 794.171875 345.328125 C 794.171875 352.179688 792.585938 358.28125 789.410156 363.625 C 786.234375 368.972656 781.972656 373.171875 776.625 376.222656 C 771.277344 379.273438 765.34375 380.796875 758.828125 380.796875 "/>
<path fill-rule="nonzero" fill="rgb(4.705811%, 7.058716%, 12.156677%)" fill-opacity="1" d="M 78.488281 237.300781 L 119.054688 237.300781 C 126.03125 237.300781 132.140625 238.496094 137.375 240.886719 C 142.609375 243.277344 146.703125 246.605469 149.675781 250.863281 C 152.636719 255.125 154.121094 260.167969 154.121094 266 C 154.121094 271.679688 152.636719 276.648438 149.675781 280.910156 C 146.703125 285.167969 142.609375 288.496094 137.375 290.886719 C 132.140625 293.277344 126.03125 294.472656 119.054688 294.472656 C 119.054688 294.472656 105.585938 294.496094 101.097656 294.503906 C 103.296875 297.859375 109.894531 307.925781 109.894531 307.925781 L 153.476562 374.242188 C 156.167969 378.332031 160.734375 380.796875 165.628906 380.796875 C 177.253906 380.796875 184.179688 367.832031 177.714844 358.171875 L 147.839844 313.535156 C 147.839844 313.535156 147.839844 313.53125 147.839844 313.53125 C 159.179688 309.796875 168.210938 303.855469 174.925781 295.707031 C 181.640625 287.5625 185.003906 277.65625 185.003906 266 C 185.003906 255.089844 182.164062 245.707031 176.5 237.859375 C 170.828125 230.011719 163.019531 224.035156 153.074219 219.921875 C 143.132812 215.8125 131.617188 213.757812 118.53125 213.757812 L 62.148438 213.757812 C 54.117188 213.757812 47.609375 220.265625 47.609375 228.296875 L 47.609375 275.75 C 47.609375 283.78125 54.117188 290.289062 62.148438 290.289062 L 78.488281 290.289062 "/>
<path fill-rule="nonzero" fill="rgb(92.941284%, 41.567993%, 23.529053%)" fill-opacity="1" d="M 69.976562 380.796875 L 56.101562 380.796875 C 51.410156 380.796875 47.609375 376.996094 47.609375 372.304688 L 47.609375 358.429688 C 47.609375 353.738281 51.410156 349.9375 56.101562 349.9375 L 69.976562 349.9375 C 74.667969 349.9375 78.46875 353.738281 78.46875 358.429688 L 78.46875 372.304688 C 78.46875 376.996094 74.667969 380.796875 69.976562 380.796875 "/>
</svg>
